<?xml version="1.0" encoding="utf-8"?>
<!-- Generator: Adobe Illustrator 25.3.1, SVG Export Plug-In . SVG Version: 6.00 Build 0)  -->
<svg version="1.1" id="Layer_1" xmlns="http://www.w3.org/2000/svg" xmlns:xlink="http://www.w3.org/1999/xlink" x="0px" y="0px"
	 viewBox="0 0 20 20" style="enable-background:new 0 0 20 20;" xml:space="preserve">
<path d="M16.9,9.1C17,8.7,17,8.4,17,8c0-1.3-0.5-2.6-1.4-3.5c-1.9-2-5.1-2-7,0C8.1,4.1,7.5,4,7,4C5.3,4,4,5.3,4,7v0.1
	C1.7,7.6,0,9.6,0,12c0,2.8,2.2,5,5,5h11c1.9,0,3.5-1.3,3.9-3.1C20.4,11.7,19,9.6,16.9,9.1z M11,15.8H9v-2h2V15.8z M11,11.8H9v-6h2
	V11.8z"/>
</svg>
